{
    "asset" : {
        "generator" : "Khronos glTF Blender I/O v1.7.33",
        "version" : "2.0"
    },
    "scene" : 0,
    "scenes" : [
        {
            "name" : "Scene",
            "nodes" : [
                4
            ]
        }
    ],
    "nodes" : [
        {
            "name" : "joint3",
            "rotation" : [
                4.070613475199575e-13,
                -2.252877788835872e-13,
                -0.6577042937278748,
                0.7532762289047241
            ],
            "scale" : [
                0.9999998807907104,
                0.9999998807907104,
                1
            ],
            "translation" : [
                1.0195139646530151,
                -1.0505318641662598e-06,
                9.146055223938077e-13
            ]
        },
        {
            "children" : [
                0
            ],
            "name" : "joint2",
            "rotation" : [
                -0.9963418841362,
                -0.08545675873756409,
                -7.148637592990781e-08,
                3.7099610494806257e-08
            ],
            "scale" : [
                0.9999951124191284,
                0.9999997019767761,
                1
            ],
            "translation" : [
                1.3338396549224854,
                -3.1930241561894945e-07,
                2.0140413425906445e-07
            ]
        },
        {
            "children" : [
                1
            ],
            "name" : "joint1",
            "rotation" : [
                0.4909554719924927,
                0.5088838934898376,
                -0.5088839530944824,
                0.49095532298088074
            ],
            "scale" : [
                1.0000001192092896,
                1,
                1
            ],
            "translation" : [
                1.2809423804283142,
                3.649732031181955e-24,
                3.2211674153804779
            ]
        },
        {
            "mesh" : 0,
            "name" : "Circulatory_Heart_Geo",
            "skin" : 0
        },
        {
            "children" : [
                3,
                2
            ],
            "name" : "Armature",
            "rotation" : [
                0.7071068286895752,
                0,
                0,
                0.7071067094802856
            ],
            "scale" : [
                0.03999999910593033,
                0.03999999910593033,
                0.03999999910593033
            ],
            "translation" : [
                0,
                0.18860206007957458,
                0
            ]
        }
    ],
    "animations" : [
        {
            "channels" : [
                {
                    "sampler" : 0,
                    "target" : {
                        "node" : 2,
                        "path" : "translation"
                    }
                },
                {
                    "sampler" : 1,
                    "target" : {
                        "node" : 2,
                        "path" : "rotation"
                    }
                },
                {
                    "sampler" : 2,
                    "target" : {
                        "node" : 2,
                        "path" : "scale"
                    }
                }
            ],
            "name" : "Armature|Take 001|BaseLayer",
            "samplers" : [
                {
                    "input" : 12,
                    "interpolation" : "LINEAR",
                    "output" : 13
                },
                {
                    "input" : 12,
                    "interpolation" : "LINEAR",
                    "output" : 14
                },
                {
                    "input" : 15,
                    "interpolation" : "LINEAR",
                    "output" : 16
                }
            ]
        },
        {
            "channels" : [
                {
                    "sampler" : 0,
                    "target" : {
                        "node" : 3,
                        "path" : "weights"
                    }
                }
            ],
            "name" : "Key|Take 001|BaseLayer",
            "samplers" : [
                {
                    "input" : 15,
                    "interpolation" : "LINEAR",
                    "output" : 17
                }
            ]
        }
    ],
    "materials" : [
        {
            "doubleSided" : true,
            "name" : "Circulatory_Heart_mat",
            "pbrMetallicRoughness" : {
                "baseColorTexture" : {
                    "index" : 0
                },
                "roughnessFactor" : 0
            }
        }
    ],
    "meshes" : [
        {
            "extras" : {
                "targetNames" : [
                    "Circulatory_Heart_Geo1"
                ]
            },
            "name" : "Mesh",
            "primitives" : [
                {
                    "attributes" : {
                        "POSITION" : 0,
                        "NORMAL" : 1,
                        "TEXCOORD_0" : 2,
                        "TEXCOORD_1" : 3,
                        "TEXCOORD_2" : 4,
                        "TEXCOORD_3" : 5,
                        "JOINTS_0" : 6,
                        "WEIGHTS_0" : 7
                    },
                    "indices" : 8,
                    "material" : 0,
                    "targets" : [
                        {
                            "POSITION" : 9,
                            "NORMAL" : 10
                        }
                    ]
                }
            ],
            "weights" : [
                0
            ]
        }
    ],
    "textures" : [
        {
            "sampler" : 0,
            "source" : 0
        }
    ],
    "images" : [
        {
            "bufferView" : 9,
            "mimeType" : "image/jpeg",
            "name" : "Circulatory_Heart_Outer_Dif"
        }
    ],
    "skins" : [
        {
            "inverseBindMatrices" : 11,
            "joints" : [
                2,
                1,
                0
            ],
            "name" : "Armature"
        }
    ],
    "accessors" : [
        {
            "bufferView" : 0,
            "componentType" : 5126,
            "count" : 2005,
            "max" : [
                0.06574831157922745,
                0.308536559343338,
                0.028898417949676514
            ],
            "min" : [
                -0.06264965981245041,
                0.17833364009857178,
                -0.035313427448272705
            ],
            "type" : "VEC3"
        },
        {
            "bufferView" : 1,
            "componentType" : 5126,
            "count" : 2005,
            "type" : "VEC3"
        },
        {
            "bufferView" : 2,
            "componentType" : 5126,
            "count" : 2005,
            "type" : "VEC2"
        },
        {
            "bufferView" : 3,
            "componentType" : 5126,
            "count" : 2005,
            "type" : "VEC2"
        },
        {
            "bufferView" : 4,
            "componentType" : 5126,
            "count" : 2005,
            "type" : "VEC2"
        },
        {
            "bufferView" : 5,
            "componentType" : 5126,
            "count" : 2005,
            "type" : "VEC2"
        },
        {
            "bufferView" : 6,
            "componentType" : 5121,
            "count" : 2005,
            "type" : "VEC4"
        },
        {
            "bufferView" : 7,
            "componentType" : 5126,
            "count" : 2005,
            "type" : "VEC4"
        },
        {
            "bufferView" : 8,
            "componentType" : 5123,
            "count" : 8520,
            "type" : "SCALAR"
        },
        {
            "bufferView" : 10,
            "componentType" : 5126,
            "count" : 2005,
            "max" : [
                1.1175870895385742e-08,
                0.007945448160171509,
                0.0006527164950966835
            ],
            "min" : [
                -0.0015667228726670146,
                -0.000531420111656189,
                0
            ],
            "type" : "VEC3"
        },
        {
            "bufferView" : 11,
            "componentType" : 5126,
            "count" : 2005,
            "type" : "VEC3"
        },
        {
            "bufferView" : 12,
            "componentType" : 5126,
            "count" : 3,
            "type" : "MAT4"
        },
        {
            "bufferView" : 13,
            "componentType" : 5126,
            "count" : 2,
            "max" : [
                5.041666666666667
            ],
            "min" : [
                0.041666666666666664
            ],
            "type" : "SCALAR"
        },
        {
            "bufferView" : 14,
            "componentType" : 5126,
            "count" : 2,
            "type" : "VEC3"
        },
        {
            "bufferView" : 15,
            "componentType" : 5126,
            "count" : 2,
            "type" : "VEC4"
        },
        {
            "bufferView" : 16,
            "componentType" : 5126,
            "count" : 121,
            "max" : [
                5.041666666666667
            ],
            "min" : [
                0.041666666666666664
            ],
            "type" : "SCALAR"
        },
        {
            "bufferView" : 17,
            "componentType" : 5126,
            "count" : 121,
            "type" : "VEC3"
        },
        {
            "bufferView" : 18,
            "componentType" : 5126,
            "count" : 121,
            "type" : "SCALAR"
        }
    ],
    "bufferViews" : [
        {
            "buffer" : 0,
            "byteLength" : 24060,
            "byteOffset" : 0
        },
        {
            "buffer" : 0,
            "byteLength" : 24060,
            "byteOffset" : 24060
        },
        {
            "buffer" : 0,
            "byteLength" : 16040,
            "byteOffset" : 48120
        },
        {
            "buffer" : 0,
            "byteLength" : 16040,
            "byteOffset" : 64160
        },
        {
            "buffer" : 0,
            "byteLength" : 16040,
            "byteOffset" : 80200
        },
        {
            "buffer" : 0,
            "byteLength" : 16040,
            "byteOffset" : 96240
        },
        {
            "buffer" : 0,
            "byteLength" : 8020,
            "byteOffset" : 112280
        },
        {
            "buffer" : 0,
            "byteLength" : 32080,
            "byteOffset" : 120300
        },
        {
            "buffer" : 0,
            "byteLength" : 17040,
            "byteOffset" : 152380
        },
        {
            "buffer" : 0,
            "byteLength" : 544920,
            "byteOffset" : 169420
        },
        {
            "buffer" : 0,
            "byteLength" : 24060,
            "byteOffset" : 714340
        },
        {
            "buffer" : 0,
            "byteLength" : 24060,
            "byteOffset" : 738400
        },
        {
            "buffer" : 0,
            "byteLength" : 192,
            "byteOffset" : 762460
        },
        {
            "buffer" : 0,
            "byteLength" : 8,
            "byteOffset" : 762652
        },
        {
            "buffer" : 0,
            "byteLength" : 24,
            "byteOffset" : 762660
        },
        {
            "buffer" : 0,
            "byteLength" : 32,
            "byteOffset" : 762684
        },
        {
            "buffer" : 0,
            "byteLength" : 484,
            "byteOffset" : 762716
        },
        {
            "buffer" : 0,
            "byteLength" : 1452,
            "byteOffset" : 763200
        },
        {
            "buffer" : 0,
            "byteLength" : 484,
            "byteOffset" : 764652
        }
    ],
    "samplers" : [
        {
            "magFilter" : 9729,
            "minFilter" : 9987
        }
    ],
    "buffers" : [
        {
            "byteLength" : 765136,
            "uri" : "data:application/octet-stream;base64,"
        }
    ]
}
