{
    "asset" : {
        "generator" : "Khronos glTF Blender I/O v1.7.33",
        "version" : "2.0"
    },
    "scene" : 0,
    "scenes" : [
        {
            "name" : "Scene",
            "nodes" : [
                4
            ]
        }
    ],
    "nodes" : [
        {
            "name" : "joint3",
            "rotation" : [
                4.076906455659224e-13,
                -2.2557984939632764e-13,
                -0.6577043533325195,
                0.7532762289047241
            ],
            "scale" : [
                0.9999998211860657,
                0.9999998807907104,
                1
            ],
            "translation" : [
                1.0195139646530151,
                -1.02100170806807e-06,
                9.039473813574062e-13
            ]
        },
        {
            "children" : [
                0
            ],
            "name" : "joint2",
            "rotation" : [
                -0.9963418841362,
                -0.08545677363872528,
                -7.148636882448045e-08,
                3.7099610494806257e-08
            ],
            "scale" : [
                0.9999952912330627,
                0.9999998211860657,
                1.0000001192092896
            ],
            "translation" : [
                1.3338396549224854,
                -3.1196066174743464e-07,
                2.0140412004820973e-07
            ]
        },
        {
            "children" : [
                1
            ],
            "name" : "joint1",
            "rotation" : [
                0.4909554421901703,
                0.5088838934898376,
                -0.5088839530944824,
                0.49095532298088074
            ],
            "scale" : [
                1.0500000715255737,
                1.0499999523162842,
                1.0499999523162842
            ],
            "translation" : [
                0.2809423804283142,
                3.649732031181955e-24,
                0.2211674153804779
            ]
        },
        {
            "mesh" : 0,
            "name" : "Circulatory_Heart_Geo",
            "skin" : 0
        },
        {
            "children" : [
                3,
                2
            ],
            "name" : "Armature",
            "rotation" : [
                0.7071068286895752,
                0,
                0,
                0.7071067094802856
            ],
            "scale" : [
                0.009999999776482582,
                0.009999999776482582,
                0.009999999776482582
            ]
        }
    ],
    "animations" : [
        {
            "channels" : [
                {
                    "sampler" : 0,
                    "target" : {
                        "node" : 2,
                        "path" : "translation"
                    }
                },
                {
                    "sampler" : 1,
                    "target" : {
                        "node" : 2,
                        "path" : "rotation"
                    }
                },
                {
                    "sampler" : 2,
                    "target" : {
                        "node" : 2,
                        "path" : "scale"
                    }
                }
            ],
            "name" : "Armature|Take 001|BaseLayer",
            "samplers" : [
                {
                    "input" : 12,
                    "interpolation" : "LINEAR",
                    "output" : 13
                },
                {
                    "input" : 12,
                    "interpolation" : "LINEAR",
                    "output" : 14
                },
                {
                    "input" : 15,
                    "interpolation" : "LINEAR",
                    "output" : 16
                }
            ]
        },
        {
            "channels" : [
                {
                    "sampler" : 0,
                    "target" : {
                        "node" : 3,
                        "path" : "weights"
                    }
                }
            ],
            "name" : "Key|Take 001|BaseLayer",
            "samplers" : [
                {
                    "input" : 15,
                    "interpolation" : "LINEAR",
                    "output" : 17
                }
            ]
        }
    ],
    "materials" : [
        {
            "doubleSided" : true,
            "name" : "Circulatory_Heart_mat",
            "normalTexture" : {
                "index" : 0,
                "scale" : 0.4000000059604645
            },
            "pbrMetallicRoughness" : {
                "baseColorTexture" : {
                    "index" : 1
                },
                "roughnessFactor" : 0
            }
        }
    ],
    "meshes" : [
        {
            "extras" : {
                "targetNames" : [
                    "Circulatory_Heart_Geo1"
                ]
            },
            "name" : "Mesh",
            "primitives" : [
                {
                    "attributes" : {
                        "POSITION" : 0,
                        "NORMAL" : 1,
                        "TEXCOORD_0" : 2,
                        "TEXCOORD_1" : 3,
                        "TEXCOORD_2" : 4,
                        "TEXCOORD_3" : 5,
                        "JOINTS_0" : 6,
                        "WEIGHTS_0" : 7
                    },
                    "indices" : 8,
                    "material" : 0,
                    "targets" : [
                        {
                            "POSITION" : 9,
                            "NORMAL" : 10
                        }
                    ]
                }
            ],
            "weights" : [
                0.4861111044883728
            ]
        }
    ],
    "textures" : [
        {
            "sampler" : 0,
            "source" : 0
        },
        {
            "sampler" : 0,
            "source" : 1
        }
    ],
    "images" : [
        {
            "bufferView" : 9,
            "mimeType" : "image/jpeg",
            "name" : "Circulatory_Heart_Outer_Bump"
        },
        {
            "bufferView" : 10,
            "mimeType" : "image/jpeg",
            "name" : "Circulatory_Heart_Outer_Dif"
        }
    ],
    "skins" : [
        {
            "inverseBindMatrices" : 11,
            "joints" : [
                2,
                1,
                0
            ],
            "name" : "Armature"
        }
    ],
    "accessors" : [
        {
            "bufferView" : 0,
            "componentType" : 5126,
            "count" : 2005,
            "max" : [
                0.016437077894806862,
                0.029983634129166603,
                0.007224604487419128
            ],
            "min" : [
                -0.015662414953112602,
                -0.0025670970790088177,
                -0.008828356862068176
            ],
            "type" : "VEC3"
        },
        {
            "bufferView" : 1,
            "componentType" : 5126,
            "count" : 2005,
            "type" : "VEC3"
        },
        {
            "bufferView" : 2,
            "componentType" : 5126,
            "count" : 2005,
            "type" : "VEC2"
        },
        {
            "bufferView" : 3,
            "componentType" : 5126,
            "count" : 2005,
            "type" : "VEC2"
        },
        {
            "bufferView" : 4,
            "componentType" : 5126,
            "count" : 2005,
            "type" : "VEC2"
        },
        {
            "bufferView" : 5,
            "componentType" : 5126,
            "count" : 2005,
            "type" : "VEC2"
        },
        {
            "bufferView" : 6,
            "componentType" : 5121,
            "count" : 2005,
            "type" : "VEC4"
        },
        {
            "bufferView" : 7,
            "componentType" : 5126,
            "count" : 2005,
            "type" : "VEC4"
        },
        {
            "bufferView" : 8,
            "componentType" : 5123,
            "count" : 8520,
            "type" : "SCALAR"
        },
        {
            "bufferView" : 11,
            "componentType" : 5126,
            "count" : 2005,
            "max" : [
                2.7939677238464355e-09,
                0.0019863639026880264,
                0.00016317912377417088
            ],
            "min" : [
                -0.00039168071816675365,
                -0.00013285689055919647,
                0
            ],
            "type" : "VEC3"
        },
        {
            "bufferView" : 12,
            "componentType" : 5126,
            "count" : 2005,
            "type" : "VEC3"
        },
        {
            "bufferView" : 13,
            "componentType" : 5126,
            "count" : 3,
            "type" : "MAT4"
        },
        {
            "bufferView" : 14,
            "componentType" : 5126,
            "count" : 2,
            "max" : [
                5.041666666666667
            ],
            "min" : [
                0.041666666666666664
            ],
            "type" : "SCALAR"
        },
        {
            "bufferView" : 15,
            "componentType" : 5126,
            "count" : 2,
            "type" : "VEC3"
        },
        {
            "bufferView" : 16,
            "componentType" : 5126,
            "count" : 2,
            "type" : "VEC4"
        },
        {
            "bufferView" : 17,
            "componentType" : 5126,
            "count" : 121,
            "max" : [
                5.041666666666667
            ],
            "min" : [
                0.041666666666666664
            ],
            "type" : "SCALAR"
        },
        {
            "bufferView" : 18,
            "componentType" : 5126,
            "count" : 121,
            "type" : "VEC3"
        },
        {
            "bufferView" : 19,
            "componentType" : 5126,
            "count" : 121,
            "type" : "SCALAR"
        }
    ],
    "bufferViews" : [
        {
            "buffer" : 0,
            "byteLength" : 24060,
            "byteOffset" : 0
        },
        {
            "buffer" : 0,
            "byteLength" : 24060,
            "byteOffset" : 24060
        },
        {
            "buffer" : 0,
            "byteLength" : 16040,
            "byteOffset" : 48120
        },
        {
            "buffer" : 0,
            "byteLength" : 16040,
            "byteOffset" : 64160
        },
        {
            "buffer" : 0,
            "byteLength" : 16040,
            "byteOffset" : 80200
        },
        {
            "buffer" : 0,
            "byteLength" : 16040,
            "byteOffset" : 96240
        },
        {
            "buffer" : 0,
            "byteLength" : 8020,
            "byteOffset" : 112280
        },
        {
            "buffer" : 0,
            "byteLength" : 32080,
            "byteOffset" : 120300
        },
        {
            "buffer" : 0,
            "byteLength" : 17040,
            "byteOffset" : 152380
        },
        {
            "buffer" : 0,
            "byteLength" : 171606,
            "byteOffset" : 169420
        },
        {
            "buffer" : 0,
            "byteLength" : 544920,
            "byteOffset" : 341028
        },
        {
            "buffer" : 0,
            "byteLength" : 24060,
            "byteOffset" : 885948
        },
        {
            "buffer" : 0,
            "byteLength" : 24060,
            "byteOffset" : 910008
        },
        {
            "buffer" : 0,
            "byteLength" : 192,
            "byteOffset" : 934068
        },
        {
            "buffer" : 0,
            "byteLength" : 8,
            "byteOffset" : 934260
        },
        {
            "buffer" : 0,
            "byteLength" : 24,
            "byteOffset" : 934268
        },
        {
            "buffer" : 0,
            "byteLength" : 32,
            "byteOffset" : 934292
        },
        {
            "buffer" : 0,
            "byteLength" : 484,
            "byteOffset" : 934324
        },
        {
            "buffer" : 0,
            "byteLength" : 1452,
            "byteOffset" : 934808
        },
        {
            "buffer" : 0,
            "byteLength" : 484,
            "byteOffset" : 936260
        }
    ],
    "samplers" : [
        {
            "magFilter" : 9729,
            "minFilter" : 9987
        }
    ],
    "buffers" : [
        {
            "byteLength" : 936744,
            "uri" : "data:application/octet-stream;base64,"
        }
    ]
}
