{
    "asset" : {
        "generator" : "Khronos glTF Blender I/O v1.7.33",
        "version" : "2.0"
    },
    "scene" : 0,
    "scenes" : [
        {
            "name" : "Scene",
            "nodes" : [
                4
            ]
        }
    ],
    "nodes" : [
        {
            "name" : "joint3",
            "rotation" : [
                5.832315405892518e-25,
                0,
                -0.7050719857215881,
                0.7091357707977295
            ],
            "scale" : [
                0.9999999403953552,
                0.9999999403953552,
                1
            ],
            "translation" : [
                1.2592886686325073,
                1.1853754244839365e-07,
                -2.045900716049253e-17
            ]
        },
        {
            "name" : "joint1",
            "rotation" : [
                0.9977878928184509,
                0.0664781779050827,
                -7.242503130555633e-08,
                4.8633669536002344e-08
            ],
            "scale" : [
                0.9999943375587463,
                0.9999997615814209,
                1
            ],
            "translation" : [
                -0.9039663076400757,
                -0.12099205702543259,
                1.7985184400256225e-14
            ]
        },
        {
            "children" : [
                0,
                1
            ],
            "name" : "joint2",
            "rotation" : [
                -0.5014347434043884,
                0.4985611140727997,
                0.4985611140727997,
                0.5014348030090332
            ],
            "scale" : [
                0.9999999403953552,
                0.9999999403953552,
                1
            ],
            "translation" : [
                0.007237169425934553,
                -9.244460059638886e-33,
                -1.5849398374557495
            ]
        },
        {
            "mesh" : 0,
            "name" : "Heart_Geo2",
            "skin" : 0
        },
        {
            "children" : [
                3,
                2
            ],
            "name" : "heart_",
            "rotation" : [
                0.7071068286895752,
                0,
                0,
                0.7071067094802856
            ],
            "scale" : [
                0.009999999776482582,
                0.009999999776482582,
                0.009999999776482582
            ]
        }
    ],
    "animations" : [
        {
            "channels" : [
                {
                    "sampler" : 0,
                    "target" : {
                        "node" : 1,
                        "path" : "translation"
                    }
                },
                {
                    "sampler" : 1,
                    "target" : {
                        "node" : 1,
                        "path" : "rotation"
                    }
                },
                {
                    "sampler" : 2,
                    "target" : {
                        "node" : 1,
                        "path" : "scale"
                    }
                }
            ],
            "name" : "heart_|Take 001|BaseLayer",
            "samplers" : [
                {
                    "input" : 12,
                    "interpolation" : "LINEAR",
                    "output" : 13
                },
                {
                    "input" : 12,
                    "interpolation" : "LINEAR",
                    "output" : 14
                },
                {
                    "input" : 15,
                    "interpolation" : "LINEAR",
                    "output" : 16
                }
            ]
        }
    ],
    "materials" : [
        {
            "doubleSided" : true,
            "name" : "Circulatory_Heart_mat1",
            "pbrMetallicRoughness" : {
                "baseColorTexture" : {
                    "index" : 0
                },
                "roughnessFactor" : 0
            }
        }
    ],
    "meshes" : [
        {
            "extras" : {
                "targetNames" : [
                    "Heart_Geo3"
                ]
            },
            "name" : "Mesh",
            "primitives" : [
                {
                    "attributes" : {
                        "POSITION" : 0,
                        "NORMAL" : 1,
                        "TEXCOORD_0" : 2,
                        "TEXCOORD_1" : 3,
                        "TEXCOORD_2" : 4,
                        "TEXCOORD_3" : 5,
                        "JOINTS_0" : 6,
                        "WEIGHTS_0" : 7
                    },
                    "indices" : 8,
                    "material" : 0,
                    "targets" : [
                        {
                            "POSITION" : 9,
                            "NORMAL" : 10
                        }
                    ]
                }
            ],
            "weights" : [
                0
            ]
        }
    ],
    "textures" : [
        {
            "sampler" : 0,
            "source" : 0
        }
    ],
    "images" : [
        {
            "bufferView" : 9,
            "mimeType" : "image/jpeg",
            "name" : "Circulatory_Heart_Outer_Dif"
        }
    ],
    "skins" : [
        {
            "inverseBindMatrices" : 11,
            "joints" : [
                2,
                0,
                1
            ],
            "name" : "heart_"
        }
    ],
    "accessors" : [
        {
            "bufferView" : 0,
            "componentType" : 5126,
            "count" : 6329,
            "max" : [
                0.014539625495672226,
                0.038996655493974686,
                0.007014726288616657
            ],
            "min" : [
                -0.01755707897245884,
                0.006473287474364042,
                -0.008828231133520603
            ],
            "type" : "VEC3"
        },
        {
            "bufferView" : 1,
            "componentType" : 5126,
            "count" : 6329,
            "type" : "VEC3"
        },
        {
            "bufferView" : 2,
            "componentType" : 5126,
            "count" : 6329,
            "type" : "VEC2"
        },
        {
            "bufferView" : 3,
            "componentType" : 5126,
            "count" : 6329,
            "type" : "VEC2"
        },
        {
            "bufferView" : 4,
            "componentType" : 5126,
            "count" : 6329,
            "type" : "VEC2"
        },
        {
            "bufferView" : 5,
            "componentType" : 5126,
            "count" : 6329,
            "type" : "VEC2"
        },
        {
            "bufferView" : 6,
            "componentType" : 5121,
            "count" : 6329,
            "type" : "VEC4"
        },
        {
            "bufferView" : 7,
            "componentType" : 5126,
            "count" : 6329,
            "type" : "VEC4"
        },
        {
            "bufferView" : 8,
            "componentType" : 5123,
            "count" : 34380,
            "type" : "SCALAR"
        },
        {
            "bufferView" : 10,
            "componentType" : 5126,
            "count" : 6329,
            "max" : [
                0,
                0.0019305627793073654,
                9.313225746154785e-10
            ],
            "min" : [
                0,
                0,
                0
            ],
            "type" : "VEC3"
        },
        {
            "bufferView" : 11,
            "componentType" : 5126,
            "count" : 6329,
            "type" : "VEC3"
        },
        {
            "bufferView" : 12,
            "componentType" : 5126,
            "count" : 3,
            "type" : "MAT4"
        },
        {
            "bufferView" : 13,
            "componentType" : 5126,
            "count" : 2,
            "max" : [
                1.0833333333333333
            ],
            "min" : [
                0.08333333333333333
            ],
            "type" : "SCALAR"
        },
        {
            "bufferView" : 14,
            "componentType" : 5126,
            "count" : 2,
            "type" : "VEC3"
        },
        {
            "bufferView" : 15,
            "componentType" : 5126,
            "count" : 2,
            "type" : "VEC4"
        },
        {
            "bufferView" : 16,
            "componentType" : 5126,
            "count" : 25,
            "max" : [
                1.0833333333333333
            ],
            "min" : [
                0.08333333333333333
            ],
            "type" : "SCALAR"
        },
        {
            "bufferView" : 17,
            "componentType" : 5126,
            "count" : 25,
            "type" : "VEC3"
        }
    ],
    "bufferViews" : [
        {
            "buffer" : 0,
            "byteLength" : 75948,
            "byteOffset" : 0
        },
        {
            "buffer" : 0,
            "byteLength" : 75948,
            "byteOffset" : 75948
        },
        {
            "buffer" : 0,
            "byteLength" : 50632,
            "byteOffset" : 151896
        },
        {
            "buffer" : 0,
            "byteLength" : 50632,
            "byteOffset" : 202528
        },
        {
            "buffer" : 0,
            "byteLength" : 50632,
            "byteOffset" : 253160
        },
        {
            "buffer" : 0,
            "byteLength" : 50632,
            "byteOffset" : 303792
        },
        {
            "buffer" : 0,
            "byteLength" : 25316,
            "byteOffset" : 354424
        },
        {
            "buffer" : 0,
            "byteLength" : 101264,
            "byteOffset" : 379740
        },
        {
            "buffer" : 0,
            "byteLength" : 68760,
            "byteOffset" : 481004
        },
        {
            "buffer" : 0,
            "byteLength" : 544920,
            "byteOffset" : 549764
        },
        {
            "buffer" : 0,
            "byteLength" : 75948,
            "byteOffset" : 1094684
        },
        {
            "buffer" : 0,
            "byteLength" : 75948,
            "byteOffset" : 1170632
        },
        {
            "buffer" : 0,
            "byteLength" : 192,
            "byteOffset" : 1246580
        },
        {
            "buffer" : 0,
            "byteLength" : 8,
            "byteOffset" : 1246772
        },
        {
            "buffer" : 0,
            "byteLength" : 24,
            "byteOffset" : 1246780
        },
        {
            "buffer" : 0,
            "byteLength" : 32,
            "byteOffset" : 1246804
        },
        {
            "buffer" : 0,
            "byteLength" : 100,
            "byteOffset" : 1246836
        },
        {
            "buffer" : 0,
            "byteLength" : 300,
            "byteOffset" : 1246936
        }
    ],
    "samplers" : [
        {
            "magFilter" : 9729,
            "minFilter" : 9987
        }
    ],
    "buffers" : [
        {
            "byteLength" : 1247236,
            "uri" : "data:application/octet-stream;base64,"
        }
    ]
}
