{
    "asset" : {
        "generator" : "Khronos glTF Blender I/O v1.7.33",
        "version" : "2.0"
    },
    "scene" : 0,
    "scenes" : [
        {
            "name" : "Scene",
            "nodes" : [
                3
            ]
        }
    ],
    "nodes" : [
        {
            "mesh" : 0,
            "name" : "worm2",
            "scale" : [
                0.6200003027915955,
                0.6200003027915955,
                0.6200003027915955
            ],
            "translation" : [
                -3.33518123626709,
                2.3180298805236816,
                -0.8420268297195435
            ]
        },
        {
            "mesh" : 1,
            "name" : "worm3",
            "rotation" : [
                0.996469259262085,
                0,
                0,
                0.0839586928486824
            ],
            "scale" : [
                0.7336718440055847,
                0.7336718440055847,
                0.7336718440055847
            ],
            "translation" : [
                -1.985302209854126,
                -2.400520086288452,
                -0.8420268893241882
            ]
        },
        {
            "mesh" : 2,
            "name" : "worm4",
            "translation" : [
                -4.0557756423950195,
                2.5979456901550293,
                -0.9240277409553528
            ]
        },
        {
            "children" : [
                0,
                1,
                2
            ],
            "name" : "group1",
            "rotation" : [
                0.7071068286895752,
                0,
                0,
                0.7071067094802856
            ],
            "scale" : [
                0.009999999776482582,
                0.009999999776482582,
                0.009999999776482582
            ]
        }
    ],
    "materials" : [
        {
            "doubleSided" : true,
            "name" : "worm",
            "pbrMetallicRoughness" : {
                "baseColorTexture" : {
                    "index" : 0
                },
                "metallicFactor" : 0.5,
                "roughnessFactor" : 0.7487671971321106
            }
        }
    ],
    "meshes" : [
        {
            "name" : "Mesh",
            "primitives" : [
                {
                    "attributes" : {
                        "POSITION" : 0,
                        "NORMAL" : 1,
                        "TEXCOORD_0" : 2
                    },
                    "indices" : 3,
                    "material" : 0
                }
            ]
        },
        {
            "name" : "Mesh.001",
            "primitives" : [
                {
                    "attributes" : {
                        "POSITION" : 4,
                        "NORMAL" : 5,
                        "TEXCOORD_0" : 6
                    },
                    "indices" : 3,
                    "material" : 0
                }
            ]
        },
        {
            "name" : "Mesh.002",
            "primitives" : [
                {
                    "attributes" : {
                        "POSITION" : 7,
                        "NORMAL" : 8,
                        "TEXCOORD_0" : 9
                    },
                    "indices" : 3,
                    "material" : 0
                }
            ]
        }
    ],
    "textures" : [
        {
            "sampler" : 0,
            "source" : 0
        }
    ],
    "images" : [
        {
            "bufferView" : 4,
            "mimeType" : "image/jpeg",
            "name" : "extrem"
        }
    ],
    "accessors" : [
        {
            "bufferView" : 0,
            "componentType" : 5126,
            "count" : 1835,
            "max" : [
                1.907294511795044,
                -0.026284119114279747,
                0.6922304034233093
            ],
            "min" : [
                -3.9548964500427246,
                -4.030379295349121,
                -1.02407968044281
            ],
            "type" : "VEC3"
        },
        {
            "bufferView" : 1,
            "componentType" : 5126,
            "count" : 1835,
            "type" : "VEC3"
        },
        {
            "bufferView" : 2,
            "componentType" : 5126,
            "count" : 1835,
            "type" : "VEC2"
        },
        {
            "bufferView" : 3,
            "componentType" : 5123,
            "count" : 10152,
            "type" : "SCALAR"
        },
        {
            "bufferView" : 5,
            "componentType" : 5126,
            "count" : 1835,
            "max" : [
                1.907294511795044,
                -0.026284119114279747,
                0.6922304034233093
            ],
            "min" : [
                -3.9548964500427246,
                -4.030379295349121,
                -1.02407968044281
            ],
            "type" : "VEC3"
        },
        {
            "bufferView" : 6,
            "componentType" : 5126,
            "count" : 1835,
            "type" : "VEC3"
        },
        {
            "bufferView" : 7,
            "componentType" : 5126,
            "count" : 1835,
            "type" : "VEC2"
        },
        {
            "bufferView" : 8,
            "componentType" : 5126,
            "count" : 1835,
            "max" : [
                0.9439345598220825,
                0.6612411737442017,
                0.24698814749717712
            ],
            "min" : [
                -3.9238903522491455,
                -3.9715678691864014,
                -0.23433202505111694
            ],
            "type" : "VEC3"
        },
        {
            "bufferView" : 9,
            "componentType" : 5126,
            "count" : 1835,
            "type" : "VEC3"
        },
        {
            "bufferView" : 10,
            "componentType" : 5126,
            "count" : 1835,
            "type" : "VEC2"
        }
    ],
    "bufferViews" : [
        {
            "buffer" : 0,
            "byteLength" : 22020,
            "byteOffset" : 0
        },
        {
            "buffer" : 0,
            "byteLength" : 22020,
            "byteOffset" : 22020
        },
        {
            "buffer" : 0,
            "byteLength" : 14680,
            "byteOffset" : 44040
        },
        {
            "buffer" : 0,
            "byteLength" : 20304,
            "byteOffset" : 58720
        },
        {
            "buffer" : 0,
            "byteLength" : 190733,
            "byteOffset" : 79024
        },
        {
            "buffer" : 0,
            "byteLength" : 22020,
            "byteOffset" : 269760
        },
        {
            "buffer" : 0,
            "byteLength" : 22020,
            "byteOffset" : 291780
        },
        {
            "buffer" : 0,
            "byteLength" : 14680,
            "byteOffset" : 313800
        },
        {
            "buffer" : 0,
            "byteLength" : 22020,
            "byteOffset" : 328480
        },
        {
            "buffer" : 0,
            "byteLength" : 22020,
            "byteOffset" : 350500
        },
        {
            "buffer" : 0,
            "byteLength" : 14680,
            "byteOffset" : 372520
        }
    ],
    "samplers" : [
        {
            "magFilter" : 9729,
            "minFilter" : 9987
        }
    ],
    "buffers" : [
        {
            "byteLength" : 387200,
            "uri" : "data:application/octet-stream;base64,"
        }
    ]
}
